<?xml version="1.0" encoding="UTF-8"?> <svg xmlns="http://www.w3.org/2000/svg" width="123" height="123" viewBox="0 0 123 123" fill="none"><path d="M98.4 57.0722C98.4 51.9062 94.218 49.2002 88.56 49.2002H72.078C73.308 44.7722 73.8 40.5902 73.8 36.9002C73.8 22.6322 69.864 19.6802 66.42 19.6802C64.206 19.6802 62.484 19.9262 60.27 21.1562C59.532 21.6482 59.286 22.1402 59.04 22.8782L56.58 36.1622C53.874 43.0502 47.232 49.2002 41.82 53.3822V88.5602C43.788 88.5602 45.756 89.5442 48.216 90.7742C50.922 92.0042 53.628 93.4802 56.58 93.4802H79.95C84.87 93.4802 88.56 89.5442 88.56 86.1002C88.56 85.3622 88.56 84.8702 88.314 84.3782C91.266 83.1482 93.48 80.6882 93.48 77.4902C93.48 76.0142 93.234 74.7842 92.742 73.5542C94.71 72.3242 96.432 70.1102 96.432 67.6502C96.432 66.1742 95.694 64.6982 94.956 63.4682C96.924 61.9922 98.4 59.5322 98.4 57.0722ZM93.234 57.0722C93.234 60.2702 90.036 60.5162 89.544 61.9922C89.052 63.7142 91.512 64.2062 91.512 67.1582C91.512 70.1102 87.822 70.1102 87.33 71.8322C86.838 73.8002 88.56 74.2922 88.56 77.2442V77.7362C88.068 80.1962 84.378 80.4422 83.64 81.4262C82.902 82.6562 83.64 83.1482 83.64 85.8542C83.64 87.3302 81.918 88.3142 79.95 88.3142H56.58C54.612 88.3142 52.644 87.3302 50.184 86.1002C48.216 85.1162 46.248 84.1322 44.28 83.6402V57.8102C50.43 53.1362 58.302 46.2482 61.254 37.6382V37.1462L63.468 24.8462C64.452 24.6002 65.19 24.6002 66.42 24.6002C66.912 24.6002 68.88 27.5522 68.88 36.9002C68.88 40.5902 68.142 44.5262 66.912 49.2002H66.42C64.944 49.2002 63.96 50.1842 63.96 51.6602C63.96 53.1362 64.944 54.1202 66.42 54.1202H88.56C91.02 54.1202 93.234 55.3502 93.234 57.0722Z" fill="white"></path><path d="M39.36 93.4802H24.6C21.894 93.4802 19.68 91.2662 19.68 88.5602V54.1202C19.68 51.4142 21.894 49.2002 24.6 49.2002H39.36C42.066 49.2002 44.28 51.4142 44.28 54.1202V88.5602C44.28 91.2662 42.066 93.4802 39.36 93.4802ZM24.6 54.1202V88.5602H39.36V54.1202H24.6Z" fill="white"></path></svg> 