<?xml version="1.0" encoding="UTF-8"?> <svg xmlns="http://www.w3.org/2000/svg" width="110" height="110" viewBox="0 0 110 110" fill="none"><path d="M29.788 25.905C36.0665 20.4459 43.9506 17.1776 52.25 16.5935V24.75C52.25 25.4793 52.5397 26.1788 53.0555 26.6945C53.5712 27.2103 54.2707 27.5 55 27.5C55.7293 27.5 56.4288 27.2103 56.9445 26.6945C57.4603 26.1788 57.75 25.4793 57.75 24.75V16.599C66.5132 17.2273 74.7983 20.8326 81.2308 26.8169C87.6633 32.8013 91.8566 40.8049 93.115 49.5H82.5C81.7707 49.5 81.0712 49.7897 80.5555 50.3055C80.0397 50.8212 79.75 51.5207 79.75 52.25C79.75 52.9793 80.0397 53.6788 80.5555 54.1945C81.0712 54.7103 81.7707 55 82.5 55H93.5C93.4934 60.3145 92.4127 65.5727 90.323 70.4591C88.2333 75.3455 85.1777 79.7591 81.3395 83.435C80.834 83.9411 80.5456 84.6241 80.5354 85.3393C80.5253 86.0545 80.7942 86.7455 81.285 87.2657C81.7759 87.786 82.4502 88.0945 83.1647 88.1258C83.8793 88.1571 84.578 87.9088 85.1125 87.4335C89.4958 83.244 92.9859 78.2107 95.3726 72.6368C97.7593 67.0628 98.9932 61.0634 99 55C99 43.3305 94.3643 32.1389 86.1127 23.8873C77.8611 15.6357 66.6695 11 55 11C43.3305 11 32.1389 15.6357 23.8873 23.8873C15.6357 32.1389 11 43.3305 11 55C11 67.6225 16.61 79.42 25.0965 87.4335C25.3594 87.6812 25.6685 87.8748 26.0062 88.003C26.3439 88.1313 26.7036 88.1918 27.0647 88.1811C27.4258 88.1704 27.7812 88.0886 28.1107 87.9405C28.4402 87.7924 28.7373 87.5809 28.985 87.318C29.2327 87.0551 29.4263 86.746 29.5545 86.4083C29.6828 86.0706 29.7433 85.7109 29.7326 85.3498C29.7219 84.9887 29.6401 84.6333 29.492 84.3038C29.3439 83.9743 29.1324 83.6772 28.8695 83.4295C21.4225 76.395 16.5 66.0165 16.5 55H27.5C28.2293 55 28.9288 54.7103 29.4445 54.1945C29.9603 53.6788 30.25 52.9793 30.25 52.25C30.25 51.5207 29.9603 50.8212 29.4445 50.3055C28.9288 49.7897 28.2293 49.5 27.5 49.5H16.885C17.9342 42.2005 21.066 35.3583 25.905 29.7935L33.803 37.697C34.3194 38.2134 35.0197 38.5035 35.75 38.5035C36.4803 38.5035 37.1806 38.2134 37.697 37.697C38.2134 37.1806 38.5035 36.4803 38.5035 35.75C38.5035 35.0197 38.2134 34.3194 37.697 33.803L29.788 25.905ZM73.9695 31.9385C74.4693 31.5416 75.0916 31.3308 75.7297 31.3424C76.3679 31.354 76.9821 31.5872 77.4672 32.002C77.9522 32.4169 78.2779 32.9875 78.3883 33.6161C78.4988 34.2447 78.3871 34.8922 78.0725 35.4475L77.4675 36.5255C75.2557 40.4311 73.03 44.3288 70.7905 48.2185C69.0001 51.3312 67.185 54.4296 65.3455 57.5135C64.6561 58.6737 63.9521 59.8251 63.2335 60.9675C62.6835 61.831 62.1445 62.6505 61.7485 63.1125C60.3277 64.7769 58.304 65.8087 56.1225 65.9809C53.941 66.1532 51.7804 65.4518 50.116 64.031C48.4516 62.6102 47.4198 60.5865 47.2476 58.405C47.0753 56.2235 47.7767 54.0629 49.1975 52.3985C49.5935 51.9365 50.314 51.271 51.084 50.5945C51.909 49.863 52.9705 48.9665 54.164 47.96C56.562 45.958 59.565 43.505 62.491 41.14C65.981 38.3168 69.4827 35.5081 72.996 32.714L73.9695 31.944V31.9385Z" fill="white"></path></svg> 