<?xml version="1.0" encoding="UTF-8"?> <svg xmlns="http://www.w3.org/2000/svg" width="109" height="109" viewBox="0 0 109 109" fill="none"><path d="M99.9167 95.3752H70.3958L63.6842 64.054C63.6172 63.7411 63.5833 63.4223 63.5833 63.1023V34.0627L46.7101 20.5194C44.7565 18.9513 44.4793 16.0812 46.0966 14.1681C47.477 12.5353 49.8228 12.1132 51.6858 13.1625L72.6667 24.9794L81.6308 58.5947C81.71 58.892 81.8193 59.1806 81.9569 59.4556L99.9167 95.3752Z" stroke="white" stroke-width="4" stroke-linecap="round" stroke-linejoin="round"></path><path d="M81.75 59.042L63.5833 63.5837" stroke="white" stroke-width="4" stroke-linecap="round" stroke-linejoin="round"></path><path d="M44.0065 57.9537L44.1516 58.075C46.2937 59.8662 49.5296 59.3183 50.9627 56.9218L54.5 51.0065V40.3509L46.1433 34.0625L31.7008 35.9839L22.2872 54.3676C22.1745 54.5874 22.08 54.8163 22.0046 55.0516L9.08334 95.375H36.2425V65.8542L38.6042 54.698L39.7396 49.9583H43.1458L42.4562 53.6314C42.1528 55.2466 42.7457 56.8996 44.0065 57.9537Z" stroke="white" stroke-width="4" stroke-linecap="round" stroke-linejoin="round"></path><path d="M22.7083 56.771L36.3333 63.5835" stroke="white" stroke-width="4" stroke-linecap="round" stroke-linejoin="round"></path></svg> 