<?xml version="1.0" encoding="UTF-8"?> <svg xmlns="http://www.w3.org/2000/svg" width="100" height="100" viewBox="0 0 100 100" fill="none"><mask id="mask0_40_155" style="mask-type:alpha" maskUnits="userSpaceOnUse" x="6" y="6" width="89" height="89"><path d="M39.6584 91.6668C37.6167 85.0106 34.5375 80.046 30.4188 76.7773C24.2417 71.8752 14.4271 74.9231 10.8021 69.8648C7.17713 64.8064 13.3417 55.5064 15.5042 50.0189C17.6688 44.5314 7.21255 42.5918 8.43338 41.0335C9.24588 39.9939 14.5313 36.9981 24.2855 32.0418C27.0563 16.2377 37.2917 8.3335 54.9959 8.3335C81.55 8.3335 91.6667 30.846 91.6667 45.1668C91.6667 59.4835 79.4167 74.9085 61.9667 78.2356C60.4063 80.5064 62.6563 84.9856 68.7167 91.6668" stroke="white" stroke-width="4.667" stroke-linecap="round" stroke-linejoin="round"></path><path fill-rule="evenodd" clip-rule="evenodd" d="M40.625 30.2086C39.2625 35.4878 39.6667 39.1961 41.8396 41.3316C44.0104 43.4649 47.7104 44.8628 52.9396 45.5191C51.7521 52.3295 53.2 55.5232 57.2792 55.1024C61.3583 54.6836 63.8104 52.9878 64.6333 50.0191C71.0083 51.8107 74.4646 50.3107 75 45.5191C75.8021 38.3316 71.9271 32.6003 70.3375 32.6003C68.75 32.6003 64.6333 32.4066 64.6333 30.2086C64.6333 28.0107 59.825 26.7711 55.4854 26.7711C51.1458 26.7711 53.7563 23.8441 47.7979 25.0003C43.825 25.7711 41.4333 27.5066 40.625 30.2086Z" fill="white" stroke="white" stroke-width="4" stroke-linejoin="round"></path><path d="M63.5417 53.125C61.423 54.4396 58.5167 56.625 57.2917 58.3333C54.2313 62.6042 51.75 65.2042 51.2084 67.9333" stroke="white" stroke-width="4" stroke-linecap="round"></path></mask><g mask="url(#mask0_40_155)"><path d="M0 0H100V100H0V0Z" fill="white"></path></g></svg> 