<?xml version="1.0" encoding="UTF-8"?> <svg xmlns="http://www.w3.org/2000/svg" width="100" height="100" viewBox="0 0 100 100" fill="none"><g clip-path="url(#clip0_126_605)"><mask id="mask0_126_605" style="mask-type:alpha" maskUnits="userSpaceOnUse" x="6" y="6" width="89" height="89"><path d="M39.6583 91.6668C37.6167 85.0106 34.5375 80.046 30.4187 76.7773C24.2417 71.8752 14.4271 74.9231 10.8021 69.8648C7.17708 64.8064 13.3417 55.5064 15.5042 50.0189C17.6688 44.5314 7.2125 42.5918 8.43333 41.0335C9.24583 39.9939 14.5312 36.9981 24.2854 32.0418C27.0562 16.2377 37.2917 8.3335 54.9958 8.3335C81.55 8.3335 91.6667 30.846 91.6667 45.1668C91.6667 59.4835 79.4167 74.9085 61.9667 78.2356C60.4062 80.5064 62.6563 84.9856 68.7167 91.6668" stroke="white" stroke-width="4.667" stroke-linecap="round" stroke-linejoin="round"></path><path fill-rule="evenodd" clip-rule="evenodd" d="M40.625 30.2086C39.2625 35.4878 39.6667 39.1961 41.8396 41.3316C44.0104 43.4649 47.7104 44.8628 52.9396 45.5191C51.7521 52.3295 53.2 55.5232 57.2792 55.1024C61.3583 54.6836 63.8104 52.9878 64.6333 50.0191C71.0083 51.8107 74.4646 50.3107 75 45.5191C75.8021 38.3316 71.9271 32.6003 70.3375 32.6003C68.75 32.6003 64.6333 32.4066 64.6333 30.2086C64.6333 28.0107 59.825 26.7711 55.4854 26.7711C51.1458 26.7711 53.7563 23.8441 47.7979 25.0003C43.825 25.7711 41.4333 27.5066 40.625 30.2086Z" fill="white" stroke="white" stroke-width="4" stroke-linejoin="round"></path><path d="M63.5417 53.125C61.4229 54.4396 58.5167 56.625 57.2917 58.3333C54.2313 62.6042 51.75 65.2042 51.2083 67.9333" stroke="white" stroke-width="4" stroke-linecap="round"></path></mask><g mask="url(#mask0_126_605)"> </g><path d="M58 18.6665C54.852 18.6665 51.7747 19.6 49.1572 21.3489C46.5397 23.0979 44.4996 25.5837 43.2949 28.4921C42.0902 31.4005 41.775 34.6008 42.3892 37.6884C43.0033 40.7759 44.5192 43.612 46.7452 45.838C48.9712 48.0639 51.8073 49.5799 54.8948 50.194C57.9823 50.8082 61.1827 50.4929 64.091 49.2883C66.9994 48.0836 69.4853 46.0435 71.2342 43.426C72.9832 40.8085 73.9167 37.7312 73.9167 34.5832C73.9167 30.3618 72.2397 26.3133 69.2548 23.3284C66.2698 20.3434 62.2214 18.6665 58 18.6665ZM58 44.9443C55.9508 44.9443 53.9476 44.3366 52.2437 43.1981C50.5398 42.0596 49.2118 40.4414 48.4276 38.5482C47.6434 36.6549 47.4382 34.5717 47.838 32.5618C48.2378 30.552 49.2246 28.7058 50.6736 27.2568C52.1226 25.8077 53.9688 24.8209 55.9786 24.4211C57.9885 24.0214 60.0718 24.2265 61.965 25.0108C63.8583 25.795 65.4765 27.123 66.615 28.8268C67.7534 30.5307 68.3611 32.5339 68.3611 34.5832C68.3538 37.3263 67.2589 39.9545 65.3166 41.8916C63.3743 43.8287 60.7431 44.9165 58 44.9165V44.9443Z" fill="white"></path><path d="M58 5.55566C49.3478 5.56289 41.05 8.99368 34.9189 15.0987C28.7879 21.2037 25.3218 29.4869 25.2778 38.139C25.2778 51.1112 32.5556 61.9723 37.8889 69.889L38.8611 71.3334C44.1674 79.0241 49.8599 86.441 55.9167 93.5557L58.0278 96.0279L60.1389 93.5557C66.1949 86.4404 71.8873 79.0235 77.1945 71.3334L78.1667 69.8612C83.4722 61.9445 90.75 51.1112 90.75 38.139C90.706 29.4821 87.2361 21.1947 81.099 15.0889C74.962 8.9831 66.657 5.55555 58 5.55566ZM73.5278 66.6668L72.5278 68.139C67.75 75.3057 61.4167 83.3334 58 87.3057C54.7222 83.3334 48.25 75.3057 43.4722 68.139L42.5 66.6668C37.5833 59.3334 30.8333 49.3057 30.8333 38.0279C30.8333 34.4603 31.536 30.9277 32.9013 27.6317C34.2665 24.3356 36.2676 21.3408 38.7903 18.8182C41.3129 16.2955 44.3078 14.2944 47.6038 12.9292C50.8998 11.5639 54.4324 10.8612 58 10.8612C61.5676 10.8612 65.1002 11.5639 68.3962 12.9292C71.6922 14.2944 74.6871 16.2955 77.2097 18.8182C79.7324 21.3408 81.7335 24.3356 83.0987 27.6317C84.464 30.9277 85.1667 34.4603 85.1667 38.0279C85.1667 49.4168 78.4445 59.4445 73.5278 66.6668Z" fill="white"></path></g><defs><clipPath id="clip0_126_605"><rect width="100" height="100" fill="white"></rect></clipPath></defs></svg> 