<svg width="58" height="62" viewBox="0 0 58 62" fill="none" xmlns="http://www.w3.org/2000/svg">
<path d="M0.704468 49.9771H58.0001" stroke="#CFCFCF" stroke-width="0.666667"/>
<path d="M5.09253 59.6807H51.935" stroke="white" stroke-width="0.933333"/>
<path d="M12.9646 61.0649H42.1283" stroke="#CFCFCF" stroke-width="0.933333"/>
<path d="M29.27 -0.000202179L57.871 48.1655H0.666626L29.27 -0.000202179Z" fill="white"/>
<path d="M16.354 39.6539L17.9307 35.1662L19.5075 39.6539H16.354ZM14.2933 42.3813H13.8796L16.5053 34.9125H16.9184L14.2933 42.3813ZM12.3657 42.3813L14.9908 34.9125H15.4038L12.779 42.3813H12.3657ZM21.5676 42.3813L18.9428 34.9125H19.0717V33.8203H13.0488V34.9125H13.8898L11.2644 42.3813H10.2544V43.4727H16.7063V42.3813H15.3942L15.9987 40.6614H19.8621L20.4669 42.3813H19.2007V43.4727H22.7292V42.3813H21.5676Z" fill="#3B965F"/>
<path d="M39.6338 41.8328V35.4616C39.7549 35.3791 39.8903 35.3182 40.0207 35.2505V42.0445C39.8903 41.9768 39.7549 41.9141 39.6338 41.8328ZM38.6017 40.8248C38.448 40.6078 38.3188 40.3753 38.2139 40.1302V37.164C38.3188 36.9194 38.448 36.687 38.6017 36.4696V40.8248ZM41.87 34.7821C43.2149 34.7821 44.4026 35.4438 45.1181 36.4461L46.6867 36.447V33.7468H45.5675V35.1213C44.6278 34.1733 43.3253 33.5739 41.87 33.5739C40.9491 33.5739 40.0956 33.8293 39.3433 34.2414C39.0795 34.3862 38.8329 34.5502 38.6017 34.7344C38.4704 34.8379 38.333 34.9314 38.2139 35.0461C37.7849 35.4599 37.4421 35.9547 37.1821 36.4914C36.8631 37.1484 36.6703 37.8739 36.6703 38.6466C36.6703 39.4203 36.8631 40.1458 37.1821 40.8036C37.4421 41.3403 37.7849 41.8334 38.2139 42.248C38.333 42.3628 38.4704 42.4563 38.6017 42.5597C38.8329 42.7445 39.0795 42.9088 39.3433 43.0534C40.0956 43.4651 40.9491 43.7202 41.87 43.7202C43.3253 43.7202 44.6278 43.1355 45.5675 42.199V43.4884H46.6867V40.8146L45.167 40.814C44.4549 41.8527 43.243 42.5121 41.87 42.5121C41.5893 42.5121 41.318 42.4818 41.0534 42.4271V34.8665C41.318 34.8127 41.5893 34.7821 41.87 34.7821Z" fill="#3B965F"/>
<path d="M30.6536 42.3813C30.6231 42.3892 30.5888 42.3929 30.5583 42.3997V42.3813H29.611V34.9125H30.5583V34.8935C30.5888 34.8998 30.6231 34.904 30.6536 34.9125C32.3698 35.337 33.6476 36.8427 33.6476 38.6462C33.6476 40.45 32.3698 41.9562 30.6536 42.3813ZM28.1914 42.3813V34.9125H28.5784V42.3813H28.1914ZM27.159 42.3813H26.7715V34.9125H27.159V42.3813ZM32.2362 34.2531C31.9119 34.074 31.5666 33.9295 31.2032 33.8203H24.536V34.9125H25.7397V42.3813H24.536V43.4727H31.2032C31.3633 43.4256 31.5245 43.3915 31.6755 43.3307C33.557 42.5649 34.8854 40.7554 34.8854 38.6462C34.8854 36.7583 33.8088 35.1265 32.2362 34.2531Z" fill="#3B965F"/>
<path d="M15.0198 52.396H18.3081V53.4842H17.2275V58.1885H16.0772V53.4842H15.0198V52.396Z" fill="white"/>
<path d="M20.7208 52.396H23.9742V53.4615H21.848V54.5157H23.9742V55.5813H21.848V57.1116H23.9742V58.1885H20.7208V52.396Z" fill="white"/>
<path d="M29.0605 53.9376L28.2559 55.9327H29.86L29.0605 53.9376ZM28.4891 52.396H29.6282L31.9079 58.1885H30.7343L30.2727 56.9982H27.8425L27.3644 58.1885H26.1906L28.4891 52.396Z" fill="white"/>
<path d="M35.008 52.396H36.0979L37.4785 56.4371L38.8648 52.396H39.9732L40.9586 58.1885H39.8626L39.2331 54.5299L37.9776 58.1885H36.974L35.724 54.5299L35.0713 58.1885H33.9753L35.008 52.396Z" fill="white"/>
</svg>
