<svg width="27" height="24" viewBox="0 0 27 24" fill="none" xmlns="http://www.w3.org/2000/svg">
<path d="M21.4445 20C11.9953 20.012 4.8233 13.46 4.83327 5.003C4.83327 4.45 5.32949 4 5.94091 4H8.86507C9.41335 4 9.87967 4.364 9.96053 4.854C10.1534 6.02905 10.532 7.17305 11.0848 8.251L11.1989 8.473C11.2755 8.62239 11.292 8.79124 11.2455 8.95043C11.199 9.10962 11.0924 9.24917 10.9441 9.345C10.0381 9.929 9.69248 11.104 10.398 12.02C11.2864 13.1733 12.3951 14.1746 13.6722 14.977C14.6879 15.613 15.9894 15.301 16.6352 14.484C16.7412 14.3497 16.8959 14.2531 17.0725 14.211C17.2491 14.1688 17.4364 14.1836 17.6021 14.253L17.8469 14.355C19.0409 14.855 20.3081 15.197 21.6096 15.371C22.1523 15.444 22.5555 15.865 22.5555 16.361V19C22.5555 19.1314 22.5268 19.2615 22.4711 19.3829C22.4153 19.5043 22.3336 19.6146 22.2307 19.7075C22.1277 19.8003 22.0055 19.874 21.871 19.9242C21.7364 19.9744 21.5923 20.0001 21.4467 20H21.4445Z" fill="white"/>
</svg>
